<?xml version="1.0" encoding="utf-8"?>
<!-- Generator: Adobe Illustrator 25.2.1, SVG Export Plug-In . SVG Version: 6.00 Build 0)  -->
<svg version="1.1" id="レイヤー_1" xmlns="http://www.w3.org/2000/svg" xmlns:xlink="http://www.w3.org/1999/xlink" x="0px"
	 y="0px" viewBox="0 0 164 50" style="enable-background:new 0 0 164 50;" xml:space="preserve">
<style type="text/css">
	.st0{fill:#A6A6A6;}
	.st1{fill:#FFFFFF;}
	.st2{font-family:'HiraKakuStdN-W8-83pv-RKSJ-H';}
	.st3{font-size:21px;}
</style>
<path d="M4.9,49.4c-2.3,0-4.3-2-4.3-4.4V5c0-2.4,2-4.4,4.3-4.4h154.2c2.3,0,4.3,2,4.3,4.4v40c0,2.4-2,4.4-4.3,4.4H4.9z"/>
<path class="st0" d="M159.1,1.2c2.1,0,3.7,1.6,3.7,3.8v40c0,2.1-1.6,3.8-3.7,3.8H4.9c-2.1,0-3.7-1.6-3.7-3.8V5
	c0-2.1,1.6-3.8,3.7-3.8H159.1z M159.1,0H4.9C2.2,0,0,2.2,0,5v40c0,2.8,2.2,5,4.9,5h154.2c2.7,0,4.9-2.2,4.9-5V5
	C164,2.2,161.8,0,159.1,0z"/>
<text transform="matrix(1 0 0 1 83.6738 31.4879)" class="st1 st2 st3">閉じる</text>
<g>
	<polygon class="st1" points="49.1,17.3 42.9,23.4 36.8,17.3 35.2,18.8 41.3,25 35.2,31.2 36.8,32.7 42.9,26.6 49.1,32.7 50.7,31.2 
		44.5,25 50.7,18.8 	"/>
	<path class="st1" d="M42.9,6.1c-10.4,0-18.9,8.4-18.9,18.9c0,10.4,8.4,18.9,18.9,18.9c10.4,0,18.9-8.4,18.9-18.9
		C61.8,14.6,53.3,6.1,42.9,6.1z M54.8,36.9c-3.1,3.1-7.3,4.9-11.9,4.9c-4.7,0-8.9-1.9-11.9-4.9c-3.1-3.1-4.9-7.3-4.9-11.9
		S28,16.1,31,13.1c3.1-3.1,7.3-4.9,11.9-4.9c4.7,0,8.9,1.9,11.9,4.9c3.1,3.1,4.9,7.3,4.9,11.9S57.9,33.9,54.8,36.9z"/>
</g>
</svg>
