<?xml version="1.0" encoding="utf-8"?>
<!-- Generator: Adobe Illustrator 25.2.1, SVG Export Plug-In . SVG Version: 6.00 Build 0)  -->
<svg version="1.1" id="レイヤー_1" xmlns="http://www.w3.org/2000/svg" xmlns:xlink="http://www.w3.org/1999/xlink" x="0px"
	 y="0px" viewBox="0 0 164 50" style="enable-background:new 0 0 164 50;" xml:space="preserve">
<style type="text/css">
	.st0{fill:#A6A6A6;}
	.st1{fill:#FFFFFF;}
	.st2{font-family:'HiraKakuStdN-W8-83pv-RKSJ-H';}
	.st3{font-size:12px;}
</style>
<path d="M4.9,49.4c-2.3,0-4.3-2-4.3-4.4V5c0-2.4,2-4.4,4.3-4.4h154.2c2.3,0,4.3,2,4.3,4.4v40c0,2.4-2,4.4-4.3,4.4H4.9z"/>
<path class="st0" d="M159.1,1.2c2.1,0,3.7,1.6,3.7,3.8v40c0,2.1-1.6,3.8-3.7,3.8H4.9c-2.1,0-3.7-1.6-3.7-3.8V5
	c0-2.1,1.6-3.8,3.7-3.8H159.1z M159.1,0H4.9C2.2,0,0,2.2,0,5v40c0,2.8,2.2,5,4.9,5h154.2c2.7,0,4.9-2.2,4.9-5V5
	C164,2.2,161.8,0,159.1,0z"/>
<text transform="matrix(1 0 0 1 79.706 21.0454)"><tspan x="0" y="0" class="st1 st2 st3">ファイルを</tspan><tspan x="0" y="14.4" class="st1 st2 st3">ダウンロード</tspan></text>
<g>
	<path class="st1" d="M39.2,30.9c0.4,0.4,1.1,0.4,1.5,0l9.8-11.3c0.5-0.5,0-1.3-0.8-1.3h-4.2c-0.5,0-0.9-0.4-0.9-0.8V5.8
		c0-0.5-0.4-0.8-0.9-0.8h-7.5c-0.5,0-0.9,0.4-0.9,0.8v11.6c0,0.5-0.4,0.8-0.9,0.8h-4.2c-0.8,0-1.2,0.8-0.8,1.3L39.2,30.9z"/>
	<polygon class="st1" points="22.8,29.9 16.7,29.9 16.7,43.4 22.8,38.1 	"/>
	<polygon class="st1" points="24.3,39.4 20.7,42.5 18.2,44.7 18.2,44.7 18.2,44.7 61.6,44.7 55.5,39.4 	"/>
	<polygon class="st1" points="57.1,29.9 57.1,38.1 63.2,43.4 63.2,29.9 	"/>
</g>
</svg>
