<?xml version="1.0" encoding="utf-8"?>
<!-- Generator: Adobe Illustrator 25.2.1, SVG Export Plug-In . SVG Version: 6.00 Build 0)  -->
<svg version="1.1" id="レイヤー_1" xmlns="http://www.w3.org/2000/svg" xmlns:xlink="http://www.w3.org/1999/xlink" x="0px"
	 y="0px" viewBox="0 0 164 50" style="enable-background:new 0 0 164 50;" xml:space="preserve">
<style type="text/css">
	.st0{fill:#A6A6A6;}
	.st1{fill:#FFFFFF;}
	.st2{font-family:'HiraKakuStdN-W8-83pv-RKSJ-H';}
	.st3{font-size:12px;}
</style>
<path d="M4.9,49.4c-2.3,0-4.3-2-4.3-4.4V5c0-2.4,2-4.4,4.3-4.4h154.2c2.3,0,4.3,2,4.3,4.4v40c0,2.4-2,4.4-4.3,4.4H4.9z"/>
<path class="st0" d="M159.1,1.2c2.1,0,3.7,1.6,3.7,3.8v40c0,2.1-1.6,3.8-3.7,3.8H4.9c-2.1,0-3.7-1.6-3.7-3.8V5
	c0-2.1,1.6-3.8,3.7-3.8H159.1z M159.1,0H4.9C2.2,0,0,2.2,0,5v40c0,2.8,2.2,5,4.9,5h154.2c2.7,0,4.9-2.2,4.9-5V5
	C164,2.2,161.8,0,159.1,0z"/>
<text transform="matrix(1 0 0 1 79.706 21.0454)"><tspan x="0" y="0" class="st1 st2 st3">ファイルを</tspan><tspan x="0" y="14.4" class="st1 st2 st3">アップロード</tspan></text>
<g>
	<path class="st1" d="M39.2,20.8l-5.4,6.4c-0.3,0.3,0,0.7,0.4,0.7h2.3c0.3,0,0.5,0.2,0.5,0.5V35c0,0.3,0.2,0.5,0.5,0.5h4.1
		c0.3,0,0.5-0.2,0.5-0.5v-6.6c0-0.3,0.2-0.5,0.5-0.5H45c0.4,0,0.7-0.4,0.4-0.7L40,20.8C39.8,20.5,39.4,20.5,39.2,20.8z"/>
	<path class="st1" d="M58.6,16.1l-5.1-4.6L52.9,11l-5.1-4.6c-0.2-0.2-0.4-0.3-0.7-0.3H21.3c-0.5,0-1,0.4-1,0.9v35.8
		c0,0.5,0.4,0.9,1,0.9h36.6c0.5,0,1-0.4,1-0.9V16.8C58.9,16.5,58.8,16.3,58.6,16.1z M45.2,19.3h7.3c0.5,0,1,0.4,1,0.9V38
		c0,0.5-0.4,0.9-1,0.9H26.7c-0.5,0-1-0.4-1-0.9V11.9c0-0.5,0.4-0.9,1-0.9h16.5c0.5,0,1,0.4,1,0.9v6.6C44.2,19,44.6,19.3,45.2,19.3z"
		/>
</g>
</svg>
